<svg width="54" height="54" viewBox="0 0 54 54" fill="none" xmlns="http://www.w3.org/2000/svg">
<g id="Iconly/Bold/Heart">
<g id="Heart">
<path id="Heart_2" fill-rule="evenodd" clip-rule="evenodd" d="M35.662 5.62656C37.0818 5.62656 38.4993 5.82681 39.847 6.27907C48.1518 8.97907 51.1443 18.0916 48.6445 26.0566C47.227 30.1268 44.9095 33.8416 41.8743 36.8768C37.5295 41.0843 32.7618 44.8193 27.6295 48.0368L27.067 48.3766L26.482 48.0143C21.3318 44.8193 16.537 41.0843 12.1518 36.8543C9.1368 33.8191 6.81705 30.1268 5.37705 26.0566C2.83455 18.0916 5.82705 8.97907 14.2218 6.23182C14.8743 6.00681 15.547 5.84931 16.222 5.76156H16.492C17.1243 5.66931 17.752 5.62656 18.382 5.62656H18.6295C20.047 5.66931 21.4195 5.91681 22.7493 6.36907H22.882C22.972 6.41182 23.0395 6.45907 23.0845 6.50182C23.5818 6.66157 24.052 6.84157 24.502 7.08907L25.357 7.47157C25.5636 7.58175 25.7955 7.75012 25.996 7.89562C26.1229 7.98782 26.2373 8.07083 26.3245 8.12407C26.3613 8.14573 26.3986 8.16751 26.4362 8.18947C26.6291 8.30209 26.8301 8.4194 26.9995 8.54932C29.4993 6.63907 32.5345 5.60406 35.662 5.62656ZM41.6471 21.8266C42.5696 21.8018 43.357 21.0616 43.4245 20.1143V19.8466C43.492 16.6943 41.5818 13.8391 38.6771 12.7366C37.7546 12.4193 36.7421 12.9166 36.4046 13.8616C36.0896 14.8066 36.5846 15.8416 37.5296 16.1768C38.9718 16.7168 39.9371 18.1366 39.9371 19.7093V19.7791C39.8943 20.2943 40.0496 20.7916 40.3646 21.1741C40.6796 21.5566 41.1521 21.7793 41.6471 21.8266Z" fill="#69B99D"/>
</g>
</g>
</svg>
